<?xml version="1.0" encoding="utf-8"?>
<!-- Generator: Adobe Illustrator 25.4.1, SVG Export Plug-In . SVG Version: 6.00 Build 0)  -->
<svg version="1.1" id="Calque_1" xmlns="http://www.w3.org/2000/svg" xmlns:xlink="http://www.w3.org/1999/xlink" x="0px" y="0px"
	 viewBox="0 0 1000 1000" style="enable-background:new 0 0 1000 1000;" xml:space="preserve">
<style type="text/css">
	.st0{fill:none;stroke:#0000FF;stroke-width:3;stroke-linejoin:round;stroke-miterlimit:10;}
	.st1{fill:none;stroke:#000000;stroke-width:3;stroke-miterlimit:10;}
</style>
<polygon class="st0" points="-63.5,-184.5 -40.1,-176.6 109.8,-126.5 132,-119.1 123.4,-92.5 87.1,19.4 78.8,44.5 64.9,51.1 
	47.3,59.6 32.7,66.6 45.5,76.2 102.1,118.4 117.2,129.9 122,111.5 170,-69.3 176.3,-92.6 200.3,-85.2 227,-77.2 252.7,-69.3 
	243.4,-42.2 182.3,135.6 176.3,153.3 159.9,146.9 138.2,138.2 117.2,129.9 102.1,118.4 45.5,76.2 32.7,66.6 42.7,78.7 93.8,140.5 
	109.5,159.4 88.9,172.7 18.8,218 8.2,224.8 5,211.8 -18.6,113.4 -23.5,93.4 -3.8,83.9 64.9,51.1 78.8,44.5 56.8,48.3 -44.5,66.7 
	-67.5,70.9 -86.2,86.2 -130.1,122.1 -152.3,140.3 -171.5,123.3 -215.9,83.5 -237.1,64.8 -210.5,44 -163.4,7.1 -140.6,-10.8 
	-121.6,10.4 -84.5,52.1 -67.5,70.9 -44.5,66.7 56.8,48.3 78.8,44.5 59,38 -94.4,-10.6 -116.5,-17.7 -108.3,-43.1 -69.1,-166.7 "/>
<polygon class="st1" points="-70.3,-254.9 -46.8,-263 -23.8,-265.3 -4.6,-263.5 9.2,-260.6 22.7,-255.8 34.9,-249.8 53.1,-238.1 
	67,-227 78.8,-213.4 91.3,-198.9 108.9,-172.8 129.3,-150.6 149.9,-137.6 170.9,-131.9 192.9,-133 236.4,-149.4 296,-148.2 
	351,-109.3 382.6,-28.4 379.3,18.8 356.8,56 319,88.9 277.5,114 253,129.3 228.7,147 209.3,176.4 189.7,204.7 179.3,217.7 
	163.9,232.7 150.2,244.5 129.6,260.3 97.1,277.4 73.7,284.1 33.8,285.9 -0.9,276 -27.7,259.7 -47.2,243.4 -74.3,217.3 -97.1,198.6 
	-116,184.5 -134.7,173.6 -155.1,165.9 -176.8,164.7 -189.3,166.8 -205.3,172.1 -241.2,176.6 -280.7,165 -306.3,142.9 -321.1,91.7 
	-306.5,23.5 -275.8,-9.3 -239.9,-23.7 -203.4,-30.1 -179.2,-37.1 -163.9,-43.4 -152.9,-48.8 -144.5,-53.6 -120.3,-79.6 
	-113.3,-126.4 -113.8,-177.3 -105.6,-206.7 -90.7,-236.1 "/>
</svg>
