<?xml version="1.0" encoding="utf-8"?>
<!-- Generator: Adobe Illustrator 25.4.1, SVG Export Plug-In . SVG Version: 6.00 Build 0)  -->
<svg version="1.1" id="Calque_1" xmlns="http://www.w3.org/2000/svg" xmlns:xlink="http://www.w3.org/1999/xlink" x="0px" y="0px"
	 viewBox="0 0 1000 1000" style="enable-background:new 0 0 1000 1000;" xml:space="preserve">
<style type="text/css">
	.st0{fill:none;stroke:#0000FF;stroke-width:3;stroke-linejoin:round;stroke-miterlimit:10;}
	.st1{fill:none;stroke:#000000;stroke-width:3;stroke-miterlimit:10;}
</style>
<polygon class="st0" points="85.1,-119.9 79.9,-104.3 74.6,-88.8 69.4,-73.3 64.1,-57.7 58.9,-42.2 53.6,-26.6 48.4,-11.1 43.2,4.4 
	37.9,20 32.7,35.5 27.4,51 22.2,66.6 16.9,82.1 11.7,97.7 6.4,113.2 1.2,128.7 -2.9,127.1 -7,125.5 -11.1,123.8 -15.2,122.2 
	-19.2,120.6 -23.3,118.9 -27.4,117.3 -31.5,115.7 -35.6,114 -39.7,112.4 -43.7,110.8 -47.8,109.1 -51.9,107.5 -56,105.9 
	-60.1,104.2 -64.2,102.6 -60.1,87.1 -56,71.6 -51.9,56 -47.8,40.5 -43.7,25 -39.6,9.5 -35.5,-6 -31.4,-21.5 -27.3,-37.1 
	-23.2,-52.6 -19.1,-68.1 -15,-83.6 -10.9,-99.1 -6.8,-114.6 -2.7,-130.2 1.4,-145.7 6.7,-144.1 11.9,-142.5 17.1,-140.8 
	22.4,-139.2 27.6,-137.6 32.8,-136 38,-134.4 43.3,-132.8 48.5,-131.2 53.7,-129.6 59,-127.9 64.2,-126.3 69.4,-124.7 74.7,-123.1 
	79.9,-121.5 "/>
<polygon class="st1" points="185.5,-171.8 209.2,-173.2 227,-165.2 236.1,-138.9 219.8,-101.3 205,-80.8 194.4,-45 201.7,-11.8 
	214.5,24.4 215.6,64.7 218.6,93.5 209.7,123.2 199.5,138.1 179,151.4 157.7,159.9 138,169.2 117.8,180.4 97.5,186.3 85.8,185.9 
	67.4,182.3 52.3,177 35.4,164.8 20.5,153.7 8.1,144.7 -6.8,133.9 -15.4,126.2 -23.3,118.9 -29.1,109.1 -32.1,102.4 -34.9,96.8 
	-38.6,86.9 -40.2,76.8 -40.2,67.8 -41,58.9 -42.2,48.8 -47.2,39.2 -62.5,28.8 -84.2,24.9 -104,18.2 -118.2,6.3 -132.1,-27.6 
	-129,-61.9 -121.6,-88.3 -107.2,-117.8 -92.9,-145.9 -73.1,-176.9 -52.1,-201.8 -30.4,-217.7 -8.6,-224.3 12.5,-224.7 26.5,-225 
	40.4,-225.4 54.4,-222.6 63.6,-220.1 71.2,-215.1 78.7,-209.2 84.8,-203.4 93.3,-193.1 97.2,-183.4 102.6,-173.3 116.7,-159.7 
	133,-154.6 149.1,-157.7 162.8,-163.1 "/>
</svg>
