<?xml version="1.0" encoding="utf-8"?>
<!-- Generator: Adobe Illustrator 25.4.1, SVG Export Plug-In . SVG Version: 6.00 Build 0)  -->
<svg version="1.1" id="Calque_1" xmlns="http://www.w3.org/2000/svg" xmlns:xlink="http://www.w3.org/1999/xlink" x="0px" y="0px"
	 viewBox="0 0 1000 1000" style="enable-background:new 0 0 1000 1000;" xml:space="preserve">
<style type="text/css">
	.st0{fill:none;stroke:#0000FF;stroke-width:3;stroke-linejoin:round;stroke-miterlimit:10;}
	.st1{fill:none;stroke:#000000;stroke-width:3;stroke-miterlimit:10;}
</style>
<polygon class="st0" points="94,47.4 87.1,52 80.2,56.6 73.4,61.2 66.5,65.8 59.7,70.5 52.8,75.1 46,79.7 39.1,84.3 32.3,88.9 
	25.4,93.5 18.6,98.1 11.7,102.7 4.9,107.3 -2,112 -8.9,116.6 -15.7,121.2 -18,112 -20.2,102.9 -22.5,93.8 -24.8,84.6 -27,75.5 
	-29.3,66.4 -31.6,57.2 -33.8,48.1 -36.1,38.9 -38.3,29.8 -40.6,20.7 -42.9,11.5 -45.1,2.4 -47.4,-6.8 -49.7,-15.9 -51.9,-25 
	-48.3,-27.1 -44.7,-29.1 -41.1,-31.2 -37.5,-33.2 -33.9,-35.3 -30.3,-37.3 -26.7,-39.4 -23.1,-41.4 -19.4,-43.5 -15.8,-45.5 
	-12.2,-47.6 -8.6,-49.6 -5,-51.7 -1.4,-53.7 2.2,-55.8 5.8,-57.8 11.3,-51.3 16.8,-44.7 22.3,-38.1 27.8,-31.5 33.4,-24.9 
	38.9,-18.4 44.4,-11.8 49.9,-5.2 55.4,1.4 60.9,7.9 66.4,14.5 71.9,21.1 77.4,27.7 82.9,34.2 "/>
<polygon class="st1" points="158.7,-12.5 150.8,12.1 153.1,26.9 175.6,36.4 215.4,64.1 223.9,116.6 194.7,159.4 148.4,178.9 
	91.2,176.5 53.9,177.6 36.6,187.7 32.6,212.9 11,221.9 -18.1,212.9 -37.6,184.7 -58.1,167.5 -89,154 -138,159.6 -182.2,160.2 
	-204.9,129.6 -209.2,105.1 -205.7,90.3 -201.7,68.7 -192.7,46.9 -172.6,29.5 -150.5,23.8 -145.2,9.1 -144.7,-10 -141.3,-20.1 
	-133.7,-31 -118,-40.6 -101.3,-49.1 -86.9,-59.4 -75.7,-72.4 -72.6,-85.7 -67.7,-101 -62.4,-112.4 -56.3,-123.9 -49.4,-134.8 
	-41.9,-144.2 -33.4,-153.9 -25.4,-161.9 -11.9,-171.6 -1.1,-178 10.1,-183.4 21.4,-187.8 30.6,-190.6 41.4,-193.7 53.2,-195.5 
	64.7,-197 77.3,-196.8 91.6,-196.2 101.1,-195.5 113.6,-192.7 131.6,-188.8 145.9,-183.2 162.1,-176.8 186.2,-162 217.7,-134.2 
	229.2,-107.8 230.5,-79.7 215.1,-61.2 189.5,-43.5 "/>
</svg>
