<?xml version="1.0" encoding="utf-8"?>
<!-- Generator: Adobe Illustrator 25.4.1, SVG Export Plug-In . SVG Version: 6.00 Build 0)  -->
<svg version="1.1" id="Calque_1" xmlns="http://www.w3.org/2000/svg" xmlns:xlink="http://www.w3.org/1999/xlink" x="0px" y="0px"
	 viewBox="0 0 1000 1000" style="enable-background:new 0 0 1000 1000;" xml:space="preserve">
<style type="text/css">
	.st0{fill:none;stroke:#000000;}
	.st1{fill:none;stroke:#0000FF;stroke-miterlimit:10;}
</style>
<polygon class="st0" points="80.8,-48.6 76.7,-63.3 72.2,-79 70.5,-84.7 64.4,-78.4 41.9,-57 34.7,-38.1 36.2,-28 41.6,-16.9 
	10.8,-55.4 13.6,-60 20.5,-73.1 24.9,-85.8 19.7,-105 2.8,-115.2 -8.2,-121.2 -11.8,-125.6 -21.1,-109.2 -26.8,-93.4 -26.4,-80.8 
	-16.1,-69.5 6.8,-58.4 10.7,-55.2 42.5,-15.4 54.1,0.5 64.4,18 70,32 76.3,47.8 58.8,56 39.9,62.5 12.5,67.8 -4.8,68.8 -21.1,67.5 
	-35.9,63.8 -51.2,55.4 -58.3,45.1 -66,34 -65.9,13.4 -65.7,-7.8 -61.6,-19.6 -68.4,-9.8 -77,5 -83.5,22.5 -86.3,41.2 -88.7,57.8 
	-86.7,74.1 -81.3,88.5 -69.9,106.5 -53,117.9 -33.6,124 -15.4,125.6 5.5,124.4 23.2,120.9 38.4,115.6 53.8,105.8 64,96.5 73.1,83.1 
	80.9,68.8 86.2,46.9 88.2,30.4 88.7,13.4 87.3,-8.2 84.3,-29.1 "/>
<polygon class="st1" points="77.6,79.6 77.6,62.4 77.6,38 77.6,17.5 77.6,-4 77.3,-24.6 76.8,-45.9 73.6,-64.1 60.9,-88 33,-102 
	12.7,-105.2 -12.4,-106.2 -47.6,-102.2 -66.3,-97.9 -81.7,-92.1 -87.1,-75.2 -89.8,-60.7 -91.5,-44.2 -91.1,-28.6 -85.3,-27.6 
	-69,-47.1 -52.6,-66.5 -29.6,-91 -14,-98.9 5.6,-88.7 10.4,-72.8 12,-46.8 12,-25.2 12,-3.6 -11.6,-1.3 -38.6,1.3 -65.4,3.9 
	-89,6.3 -101.2,27.1 -105.2,48.9 -98.1,77.3 -87.6,91.5 -69.4,101.3 -40.5,106.2 -8.5,96.5 10.3,72.4 11.4,63.7 -0.6,74.6 -15.1,78 
	-33.6,69.9 -42.7,41.1 -41.5,22.9 -38.6,8.3 -13.3,8.3 12,8.3 12,17.1 12,34.9 12,61.4 12.4,73.5 15.4,91 20.2,104.6 42.8,99.8 
	74.3,93.1 105.2,86.4 105.2,83 105.2,79.6 91.4,79.6 77.6,79.6 "/>
</svg>
