<?xml version="1.0" encoding="utf-8"?>
<!-- Generator: Adobe Illustrator 25.4.1, SVG Export Plug-In . SVG Version: 6.00 Build 0)  -->
<svg version="1.1" id="Calque_1"
	xmlns="http://www.w3.org/2000/svg"
	xmlns:xlink="http://www.w3.org/1999/xlink" x="0px" y="0px" viewBox="0 0 1000 1000" style="enable-background:new 0 0 1000 1000;" xml:space="preserve">
	<style type="text/css">
	.st0{fill:none;stroke:#0000FF;stroke-width:3;stroke-linejoin:round;stroke-miterlimit:10;}
	.st1{fill:none;stroke:#000000;stroke-width:3;stroke-miterlimit:10;}
	</style>
	<polygon class="st0" points="130.1,-54.1 126.6,-43.3 123.1,-32.4 119.7,-21.5 116.2,-10.6 112.7,0.2 109.2,11.1 105.7,22 
	102.2,32.8 98.8,43.7 95.3,54.6 91.8,65.5 88.3,76.3 84.8,87.2 81.3,98.1 77.9,109 74.4,119.8 61.6,115.7 48.8,111.6 36,107.5 
	23.3,103.4 10.5,99.3 -2.3,95.2 -15.1,91.1 -27.9,87 -40.6,82.9 -53.4,78.8 -66.2,74.7 -79,70.6 -91.8,66.5 -104.5,62.4 
	-117.3,58.3 -130.1,54.2 -126.7,43.1 -123.2,31.9 -119.8,20.8 -116.4,9.7 -113,-1.5 -109.5,-12.6 -106.1,-23.8 -102.7,-34.9 
	-99.2,-46.1 -95.8,-57.2 -92.4,-68.4 -89,-79.5 -85.5,-90.7 -82.1,-101.8 -78.7,-112.9 -75.3,-124.1 -62.4,-119.7 -49.6,-115.3 
	-36.8,-111 -23.9,-106.6 -11.1,-102.2 1.8,-97.9 14.6,-93.5 27.4,-89.1 40.3,-84.7 53.1,-80.4 65.9,-76 78.8,-71.6 91.6,-67.3 
	104.4,-62.9 "/>
	<polygon class="st1" points="156,-76.4 160.2,-59.4 165.1,-44 175.3,-25.6 203.5,0 216.1,13.6 240.2,36.7 252.7,69 256.8,89 
	250.2,119.5 228.4,132.3 190,127.1 159.1,116.7 138.6,111.7 119.6,108.5 100.2,105.9 85,106.1 66.5,110.1 49.8,122.8 30.6,141.2 
	14.7,158.4 -3.5,176.3 -22.7,195 -51.7,215.7 -77.6,223.7 -99.6,223.5 -123.2,216.3 -140.1,206.8 -152.1,191.2 -156.5,176.1 
	-156.5,154 -154.9,132.5 -151.3,91.4 -149.6,69.5 -147.8,45.7 -149.3,27 -156.2,7.2 -166.7,-8.7 -177.5,-28.1 -185.4,-44.8 
	-188.8,-61.4 -190,-75 -189.4,-89.4 -182.4,-103.7 -171.9,-113 -153.2,-118.1 -139.8,-119.5 -127.9,-119.1 -106,-116.1 
	-84.8,-106.5 -63.6,-90.8 -39,-82.6 -18.5,-85 0.9,-94.2 17.7,-107.2 32.7,-125.3 48.1,-142.7 72.3,-160.1 94.5,-168.3 116.7,-167 
	138.9,-149.9 151.2,-121.2 155,-106.2 "/>
</svg>
