<?xml version="1.0" encoding="utf-8"?>
<!-- Generator: Adobe Illustrator 25.4.1, SVG Export Plug-In . SVG Version: 6.00 Build 0)  -->
<svg version="1.1" id="Calque_1"
	xmlns="http://www.w3.org/2000/svg"
	xmlns:xlink="http://www.w3.org/1999/xlink" x="0px" y="0px" viewBox="0 0 1000 1000" style="enable-background:new 0 0 1000 1000;" xml:space="preserve">
	<style type="text/css">
	.st0{fill:none;stroke:#0000FF;stroke-width:3;stroke-linejoin:round;stroke-miterlimit:10;}
	.st1{fill:none;stroke:#000000;stroke-width:3;stroke-miterlimit:10;}
	</style>
	<polygon class="st0" points="86.4,3.7 80.7,8.5 74.9,13.2 69.2,18 63.4,22.8 57.7,27.6 51.9,32.4 46.2,37.2 40.5,41.9 34.7,46.7 29,51.5 23.2,56.3 17.5,61.1 
	11.7,65.9 6,70.6 0.3,75.4 -5.5,80.2 -11.5,74.9 -17.4,69.7 -23.4,64.4 -29.4,59.1 -35.4,53.8 -41.4,48.6 -47.3,43.3 -53.3,38 
	-59.3,32.7 -65.3,27.5 -71.3,22.2 -77.2,16.9 -83.2,11.6 -89.2,6.4 -95.2,1.1 -101.2,-4.2 -94.5,-9.5 -87.8,-14.7 -81.2,-20 -74.5,-25.3 -67.8,-30.5 -61.2,-35.8 -54.5,-41.1 
	-47.9,-46.4 -41.2,-51.6 -34.5,-56.9 -27.9,-62.2 -21.2,-67.5 -14.5,-72.7 -7.9,-78 -1.2,-83.3 5.4,-88.6 10.5,-82.8 15.6,-77 
	20.6,-71.3 25.7,-65.5 30.7,-59.7 35.8,-54 40.9,-48.2 45.9,-42.4 51,-36.7 56,-30.9 61.1,-25.1 66.2,-19.4 71.2,-13.6 81.3,-2.1"/>
	<polygon class="st1" points="213.7,-21.9 207.5,-8.2 197.6,11.6 197.1,32.3 204.1,51.6 213.7,75.2 216.5,98.5 211.9,124.6 200.6,148.5 
	184.2,165.8 168.5,176.4 149.7,182.4 127.4,185 99.7,180.5 74.4,167.6 57.4,159 42.5,156.9 22.6,161.5 5.1,173.7 -6.6,179.9 
	-27.3,194 -49.4,200.9 -70.1,200.2 -91.5,193.4 -108,184.3 -119.1,175.3 -131.9,153.5 -137.3,132.8 -140.7,108 -142.7,90.4 
	-145.7,72.6 -149.9,53 -156,34.3 -160.8,20.3 -166.4,4.6 -174.1,-11.4 -180.5,-27.3 -183.6,-48 -180.6,-71.4 -170.2,-88.6 -150.2,-104.6 
	-132.1,-114.7 -114,-126.5 -98.7,-139 -84.8,-160.7 -68.6,-182.9 -50.9,-198.4 -32.7,-209.5 -5.5,-210.9 22.2,-201.1 36.1,-184.1 
	47.5,-166.6 62.2,-152.6 79.6,-143.1 97,-136.9 116.8,-130.1 137.1,-124.5 158.7,-114.1 173.4,-104.7 188.8,-92.3 202.7,-76.3 
	212.1,-60.3 216.4,-40.2"/>
</svg>
