<?xml version="1.0" encoding="utf-8"?>
<!-- Generator: Adobe Illustrator 26.0.1, SVG Export Plug-In . SVG Version: 6.00 Build 0)  -->
<svg version="1.1" id="Calque_1" xmlns="http://www.w3.org/2000/svg" xmlns:xlink="http://www.w3.org/1999/xlink" x="0px" y="0px"
	 viewBox="0 0 1000 1000" style="enable-background:new 0 0 1000 1000;" xml:space="preserve">
<polygon points="687.9,257.1 417.6,242.7 189,147.9 222.9,-7.2 451.5,87.3 721.8,101.7 "/>
<polygon points="173.1,1.5 173.1,-0.9 173.1,-0.9 173.1,-142.2 -23.7,-183 -24.3,-1.2 -24.3,-1.2 -24.3,1.2 -24.3,3.9 -24.3,3.9 
	-24.3,185.7 172.8,145.2 173.1,4.2 173.1,4.2 "/>
<polygon points="-178.8,-9 -42.3,-10.2 -132.3,-295.5 -183.6,-295.5 -234.9,-295.5 -324.9,-10.2 -188.4,-9 -188.4,-9 -183.6,-9 "/>
<rect x="-348.9" y="46.5" transform="matrix(0.7071 -0.7071 0.7071 0.7071 -177.9066 -129.7197)" width="206.7" height="206.7"/>
<rect x="-721.8" y="-296.1" width="378" height="378"/>
</svg>
