<?xml version="1.0" encoding="utf-8"?>
<!-- Generator: Adobe Illustrator 26.0.1, SVG Export Plug-In . SVG Version: 6.00 Build 0)  -->
<svg version="1.1" id="Calque_1" xmlns="http://www.w3.org/2000/svg" xmlns:xlink="http://www.w3.org/1999/xlink" x="0px" y="0px"
	 viewBox="0 0 1000 1000" style="enable-background:new 0 0 1000 1000;" xml:space="preserve">
<polygon points="229.3,85.7 139.2,80.9 63,49.3 74.3,-2.4 150.5,29.1 240.6,33.9 "/>
<polygon points="57.7,0.5 57.7,-0.3 57.7,-0.3 57.7,-47.4 -7.9,-61 -8.1,-0.4 -8.1,-0.4 -8.1,0.4 -8.1,1.3 -8.1,1.3 -8.1,61.9 
	57.6,48.4 57.7,1.4 57.7,1.4 "/>
<polygon points="-59.6,-3 -14.1,-3.4 -44.1,-98.5 -61.2,-98.5 -78.3,-98.5 -108.3,-3.4 -62.8,-3 -62.8,-3 -61.2,-3 "/>
<rect x="-116.3" y="15.5" transform="matrix(0.7071 -0.7071 0.7071 0.7071 -59.2777 -43.2539)" width="68.9" height="68.9"/>
<rect x="-240.6" y="-98.7" width="126" height="126"/>
</svg>
