<?xml version="1.0" encoding="utf-8"?>
<!-- Generator: Adobe Illustrator 26.0.1, SVG Export Plug-In . SVG Version: 6.00 Build 0)  -->
<svg version="1.1" id="Calque_1" xmlns="http://www.w3.org/2000/svg" xmlns:xlink="http://www.w3.org/1999/xlink" x="0px" y="0px"
	 viewBox="0 0 1000 1000" style="enable-background:new 0 0 1000 1000;" xml:space="preserve">
<polygon points="464.4,-67.5 387.3,121.8 243.9,266.7 137.7,196.5 358.2,-138 "/>
<polygon points="113.1,188.1 111.9,186 111.9,186 43.5,62.4 -148.5,121.8 -60.9,281.4 -60.9,281.4 -59.7,283.5 -58.5,285.6 
	-58.2,285.6 30,444.9 182.4,314.1 114.3,190.2 114.3,190.2 "/>
<rect x="-414.5" y="-48" transform="matrix(0.7071 -0.7071 0.7071 0.7071 -137.4493 -186.5786)" width="241.2" height="241.2"/>
<rect x="-162.6" y="-390.3" transform="matrix(0.3046 -0.9525 0.9525 0.3046 204.1229 -76.5114)" width="424.5" height="424.5"/>
</svg>
