<?xml version="1.0" encoding="utf-8"?>
<!-- Generator: Adobe Illustrator 26.0.1, SVG Export Plug-In . SVG Version: 6.00 Build 0)  -->
<svg version="1.1" id="Calque_1" xmlns="http://www.w3.org/2000/svg" xmlns:xlink="http://www.w3.org/1999/xlink" x="0px" y="0px"
	 viewBox="0 0 1000 1000" style="enable-background:new 0 0 1000 1000;" xml:space="preserve">
<polygon points="154.8,-22.5 129.1,40.6 81.3,88.9 45.9,65.5 119.4,-46 "/>
<polygon points="37.7,62.7 37.3,62 37.3,62 14.5,20.8 -49.5,40.6 -20.3,93.8 -20.3,93.8 -19.9,94.5 -19.5,95.2 -19.4,95.2 10,148.3 
	60.8,104.7 38.1,63.4 38.1,63.4 "/>
<rect x="-138.2" y="-16" transform="matrix(0.7071 -0.7071 0.7071 0.7071 -45.8062 -62.2111)" width="80.4" height="80.4"/>
<rect x="-54.2" y="-130.1" transform="matrix(0.3046 -0.9525 0.9525 0.3046 68.0316 -25.5012)" width="141.5" height="141.5"/>
</svg>
