<?xml version="1.0" encoding="utf-8"?>
<!-- Generator: Adobe Illustrator 26.0.1, SVG Export Plug-In . SVG Version: 6.00 Build 0)  -->
<svg version="1.1" id="Calque_1" xmlns="http://www.w3.org/2000/svg" xmlns:xlink="http://www.w3.org/1999/xlink" x="0px" y="0px"
	 viewBox="0 0 1000 1000" style="enable-background:new 0 0 1000 1000;" xml:space="preserve">
<polygon points="147.4,-32 139.9,35.7 106.8,95.3 60.5,80.4 93.5,20.9 101,-46.9 "/>
<polygon points="45.1,62.7 44.7,62 44.7,62 22,20.8 -42.1,40.6 -12.8,93.8 -12.8,93.8 -12.4,94.5 -12,95.2 -12,95.2 17.4,148.3 
	68.3,104.7 45.5,63.4 45.5,63.4 "/>
<rect x="-130.8" y="-16" transform="matrix(0.7071 -0.7071 0.7071 0.7071 -43.6467 -56.9706)" width="80.4" height="80.4"/>
<rect x="-46.8" y="-130.1" transform="matrix(0.3046 -0.9525 0.9525 0.3046 73.184 -18.4559)" width="141.5" height="141.5"/>
</svg>
