<?xml version="1.0" encoding="utf-8"?>
<!-- Generator: Adobe Illustrator 26.0.1, SVG Export Plug-In . SVG Version: 6.00 Build 0)  -->
<svg version="1.1" id="Calque_1" xmlns="http://www.w3.org/2000/svg" xmlns:xlink="http://www.w3.org/1999/xlink" x="0px" y="0px"
	 viewBox="0 0 1000 1000" style="enable-background:new 0 0 1000 1000;" xml:space="preserve">
<polygon points="442.2,-96 419.7,107.1 320.4,285.9 181.5,241.2 280.5,62.7 303,-140.7 "/>
<polygon points="135.3,188.1 134.1,186 134.1,186 66,62.4 -126.3,121.8 -38.4,281.4 -38.4,281.4 -37.2,283.5 -36,285.6 -36,285.6 
	52.2,444.9 204.9,314.1 136.5,190.2 136.5,190.2 "/>
<rect x="-392.4" y="-48" transform="matrix(0.7071 -0.7071 0.7071 0.7071 -130.9472 -170.8973)" width="241.2" height="241.2"/>
<rect x="-140.4" y="-390.3" transform="matrix(0.3046 -0.9525 0.9525 0.3046 219.566 -55.3282)" width="424.5" height="424.5"/>
</svg>
