<?xml version="1.0" encoding="utf-8"?>
<!-- Generator: Adobe Illustrator 26.0.1, SVG Export Plug-In . SVG Version: 6.00 Build 0)  -->
<svg version="1.1" id="Calque_1" xmlns="http://www.w3.org/2000/svg" xmlns:xlink="http://www.w3.org/1999/xlink" x="0px" y="0px"
	 viewBox="0 0 1000 1000" style="enable-background:new 0 0 1000 1000;" xml:space="preserve">
<rect x="33.6" y="-1.8" transform="matrix(0.5524 -0.8336 0.8336 0.5524 24.8455 94.4387)" width="133.6" height="51.8"/>
<polygon points="33.7,62.7 33.3,62 33.3,62 10.5,20.8 -53.5,40.6 -24.3,93.8 -24.3,93.8 -23.9,94.5 -23.5,95.2 -23.5,95.2 
	5.9,148.3 56.8,104.7 34.1,63.4 34.1,63.4 "/>
<rect x="-142.2" y="-16" transform="matrix(0.7071 -0.7071 0.7071 0.7071 -46.9768 -65.0404)" width="80.4" height="80.4"/>
<rect x="-58.2" y="-130.1" transform="matrix(0.3046 -0.9525 0.9525 0.3046 65.2492 -29.3109)" width="141.5" height="141.5"/>
</svg>
