<?xml version="1.0" encoding="utf-8"?>
<!-- Generator: Adobe Illustrator 26.0.1, SVG Export Plug-In . SVG Version: 6.00 Build 0)  -->
<svg version="1.1" id="Calque_1" xmlns="http://www.w3.org/2000/svg" xmlns:xlink="http://www.w3.org/1999/xlink" x="0px" y="0px"
	 viewBox="0 0 1000 1000" style="enable-background:new 0 0 1000 1000;" xml:space="preserve">
<rect x="100.8" y="-5.6" transform="matrix(0.5524 -0.8336 0.8336 0.5524 74.6844 283.3186)" width="400.8" height="155.4"/>
<polygon points="101.1,188.1 99.9,186 99.9,186 31.5,62.4 -160.5,121.8 -72.9,281.4 -72.9,281.4 -71.7,283.5 -70.5,285.6 
	-70.5,285.6 17.7,444.9 170.4,314.1 102.3,190.2 102.3,190.2 "/>
<rect x="-426.6" y="-48" transform="matrix(0.7071 -0.7071 0.7071 0.7071 -140.9554 -195.1125)" width="241.2" height="241.2"/>
<rect x="-174.7" y="-390.4" transform="matrix(0.3046 -0.9525 0.9525 0.3046 195.769 -88.0608)" width="424.5" height="424.5"/>
</svg>
