<?xml version="1.0" encoding="utf-8"?>
<!-- Generator: Adobe Illustrator 26.0.1, SVG Export Plug-In . SVG Version: 6.00 Build 0)  -->
<svg version="1.1" id="Calque_1" xmlns="http://www.w3.org/2000/svg" xmlns:xlink="http://www.w3.org/1999/xlink" x="0px" y="0px"
	 viewBox="0 0 1000 1000" style="enable-background:new 0 0 1000 1000;" xml:space="preserve">
<rect x="105.2" y="-113.5" transform="matrix(0.2708 -0.9626 0.9626 0.2708 257.3319 268.0447)" width="400.8" height="155.4"/>
<polygon points="150.6,135.9 148.8,134.2 148.8,134.2 45.9,37.5 -118.7,152.8 13.5,277.9 13.5,277.9 15.3,279.6 17.1,281.2 
	17.1,281.2 149.8,405.9 255.2,234.6 152.4,137.5 152.4,137.5 "/>
<rect x="-392.9" y="29.9" transform="matrix(0.4568 -0.8896 0.8896 0.4568 -281.7873 -160.4635)" width="241.2" height="241.2"/>
<rect x="-234.2" y="-405.5" transform="matrix(1 -1.521923e-03 1.521923e-03 1 0.2942 -3.366449e-02)" width="424.5" height="424.5"/>
</svg>
