<?xml version="1.0" encoding="utf-8"?>
<!-- Generator: Adobe Illustrator 26.0.1, SVG Export Plug-In . SVG Version: 6.00 Build 0)  -->
<svg version="1.1" id="Calque_1" xmlns="http://www.w3.org/2000/svg" xmlns:xlink="http://www.w3.org/1999/xlink" x="0px" y="0px"
	 viewBox="0 0 1000 1000" style="enable-background:new 0 0 1000 1000;" xml:space="preserve">
<rect x="371.1" y="-136.2" transform="matrix(0.2178 -0.976 0.976 0.2178 240.2337 537.6899)" width="168.9" height="510.3"/>
<polygon points="-180,-9 -43.5,-10.2 -133.5,-295.5 -184.8,-295.5 -236.1,-295.5 -326.1,-10.2 -189.6,-9 -189.6,-9 -184.8,-9 "/>
<rect x="-350.1" y="46.6" transform="matrix(0.7071 -0.7071 0.7071 0.7071 -178.2596 -130.555)" width="206.7" height="206.7"/>
<polygon points="171.6,-0.6 171.6,-3.3 171.6,-3.3 171.9,-144.3 -24.9,-185.4 -25.5,-3.3 -25.5,-3.3 -25.5,-0.9 -25.5,1.5 
	-25.5,1.5 -25.5,183.6 171.6,143.1 171.6,1.8 171.6,1.8 "/>
<rect x="-723" y="-296.1" width="378" height="378"/>
</svg>
