<?xml version="1.0" encoding="utf-8"?>
<!-- Generator: Adobe Illustrator 26.0.1, SVG Export Plug-In . SVG Version: 6.00 Build 0)  -->
<svg version="1.1" id="Calque_1" xmlns="http://www.w3.org/2000/svg" xmlns:xlink="http://www.w3.org/1999/xlink" x="0px" y="0px"
	 viewBox="0 0 1000 1000" style="enable-background:new 0 0 1000 1000;" xml:space="preserve">
<rect x="123.7" y="-45.4" transform="matrix(0.2178 -0.976 0.976 0.2178 80.0823 179.208)" width="56.3" height="170.1"/>
<polygon points="-60,-3 -14.5,-3.4 -44.5,-98.5 -61.6,-98.5 -78.7,-98.5 -108.7,-3.4 -63.2,-3 -63.2,-3 -61.6,-3 "/>
<rect x="-116.7" y="15.5" transform="matrix(0.7071 -0.7071 0.7071 0.7071 -59.3902 -43.5414)" width="68.9" height="68.9"/>
<polygon points="57.2,-0.2 57.2,-1.1 57.2,-1.1 57.3,-48.1 -8.3,-61.8 -8.5,-1.1 -8.5,-1.1 -8.5,-0.3 -8.5,0.5 -8.5,0.5 -8.5,61.2 
	57.2,47.7 57.2,0.6 57.2,0.6 "/>
<rect x="-241" y="-98.7" width="126" height="126"/>
</svg>
