<?xml version="1.0" encoding="utf-8"?>
<!-- Generator: Adobe Illustrator 26.0.1, SVG Export Plug-In . SVG Version: 6.00 Build 0)  -->
<svg version="1.1" id="Calque_1" xmlns="http://www.w3.org/2000/svg" xmlns:xlink="http://www.w3.org/1999/xlink" x="0px" y="0px"
	 viewBox="0 0 1000 1000" style="enable-background:new 0 0 1000 1000;" xml:space="preserve">
<rect x="371.2" y="-137.1" transform="matrix(0.2178 -0.976 0.976 0.2178 241.1668 537.0043)" width="168.9" height="510.3"/>
<polygon points="-180,-9.6 -43.5,-10.8 -133.5,-296.1 -184.8,-296.1 -236.1,-296.1 -326.1,-10.8 -189.6,-9.6 -189.6,-9.6 
	-184.8,-9.6 "/>
<rect x="-437.8" y="46.7" transform="matrix(0.7071 -0.7071 0.7071 0.7071 -204.078 -192.5641)" width="206.7" height="206.7"/>
<polygon points="-723,-295.5 -723,82.5 -438.6,82.5 -438.6,-11.1 -345,-11.1 -345,-295.5 "/>
<polygon points="171.6,-1.2 171.6,-3.9 171.6,-3.9 171.9,-144.9 -24.9,-186 -25.5,-4.2 -25.5,-4.2 -25.5,-1.5 -25.5,0.9 -25.5,0.9 
	-25.5,182.7 171.6,142.5 171.6,1.2 171.6,1.2 "/>
</svg>
