<?xml version="1.0" encoding="utf-8"?>
<!-- Generator: Adobe Illustrator 26.0.1, SVG Export Plug-In . SVG Version: 6.00 Build 0)  -->
<svg version="1.1" id="Calque_1" xmlns="http://www.w3.org/2000/svg" xmlns:xlink="http://www.w3.org/1999/xlink" x="0px" y="0px"
	 viewBox="0 0 1000 1000" style="enable-background:new 0 0 1000 1000;" xml:space="preserve">
<rect x="123.7" y="-45.7" transform="matrix(0.2178 -0.976 0.976 0.2178 80.3875 178.9928)" width="56.3" height="170.1"/>
<polygon points="-60,-3.2 -14.5,-3.6 -44.5,-98.7 -61.6,-98.7 -78.7,-98.7 -108.7,-3.6 -63.2,-3.2 -63.2,-3.2 -61.6,-3.2 "/>
<rect x="-146" y="15.6" transform="matrix(0.7071 -0.7071 0.7071 0.7071 -68.0331 -64.2184)" width="68.9" height="68.9"/>
<polygon points="-241,-98.5 -241,27.5 -146.2,27.5 -146.2,-3.7 -115,-3.7 -115,-98.5 "/>
<polygon points="57.2,-0.4 57.2,-1.3 57.2,-1.3 57.3,-48.3 -8.3,-62 -8.5,-1.4 -8.5,-1.4 -8.5,-0.5 -8.5,0.3 -8.5,0.3 -8.5,60.9 
	57.2,47.5 57.2,0.4 57.2,0.4 "/>
</svg>
