<?xml version="1.0" encoding="utf-8"?>
<!-- Generator: Adobe Illustrator 26.0.1, SVG Export Plug-In . SVG Version: 6.00 Build 0)  -->
<svg version="1.1" id="Calque_1" xmlns="http://www.w3.org/2000/svg" xmlns:xlink="http://www.w3.org/1999/xlink" x="0px" y="0px"
	 viewBox="0 0 1000 1000" style="enable-background:new 0 0 1000 1000;" xml:space="preserve">
<polygon points="229.3,84.7 139.2,79.9 63,48.4 74.3,-3.4 150.5,28.2 240.6,32.9 "/>
<polygon points="-59.6,-3.2 -14.1,-3.6 -44.1,-98.7 -61.2,-98.7 -78.3,-98.7 -108.3,-3.6 -62.8,-3.2 -62.8,-3.2 -61.2,-3.2 "/>
<rect x="-145.6" y="15.6" transform="matrix(0.7071 -0.7071 0.7071 0.7071 -67.9206 -63.9309)" width="68.9" height="68.9"/>
<polygon points="-240.6,-98.5 -240.6,27.5 -145.8,27.5 -145.8,-3.7 -114.6,-3.7 -114.6,-98.5 "/>
<polygon points="57.7,-0.4 57.7,-1.3 57.7,-1.3 57.7,-48.3 -7.9,-62 -8.1,-1.4 -8.1,-1.4 -8.1,-0.5 -8.1,0.3 -8.1,0.3 -8.1,60.9 
	57.6,47.5 57.7,0.4 57.7,0.4 "/>
</svg>
