<?xml version="1.0" encoding="utf-8"?>
<!-- Generator: Adobe Illustrator 26.0.1, SVG Export Plug-In . SVG Version: 6.00 Build 0)  -->
<svg version="1.1" id="Calque_1" xmlns="http://www.w3.org/2000/svg" xmlns:xlink="http://www.w3.org/1999/xlink" x="0px" y="0px"
	 viewBox="0 0 1000 1000" style="enable-background:new 0 0 1000 1000;" xml:space="preserve">
<polygon points="687.9,254.1 417.6,239.7 189,145.2 222.9,-10.2 451.5,84.6 721.8,98.7 "/>
<polygon points="-178.8,-9.6 -42.3,-10.8 -132.3,-296.1 -183.6,-296.1 -234.9,-296.1 -324.9,-10.8 -188.4,-9.6 -188.4,-9.6 
	-183.6,-9.6 "/>
<rect x="-436.6" y="46.7" transform="matrix(0.7071 -0.7071 0.7071 0.7071 -203.7258 -191.7198)" width="206.7" height="206.7"/>
<polygon points="-721.8,-295.5 -721.8,82.5 -437.4,82.5 -437.4,-11.1 -343.8,-11.1 -343.8,-295.5 "/>
<polygon points="173.1,-1.2 173.1,-3.9 173.1,-3.9 173.1,-144.9 -23.7,-186 -24.3,-4.2 -24.3,-4.2 -24.3,-1.5 -24.3,0.9 -24.3,0.9 
	-24.3,182.7 172.8,142.5 173.1,1.2 173.1,1.2 "/>
</svg>
