<?xml version="1.0" encoding="utf-8"?>
<!-- Generator: Adobe Illustrator 26.0.1, SVG Export Plug-In . SVG Version: 6.00 Build 0)  -->
<svg version="1.1" id="Calque_1" xmlns="http://www.w3.org/2000/svg" xmlns:xlink="http://www.w3.org/1999/xlink" x="0px" y="0px"
	 viewBox="0 0 1000 1000" style="enable-background:new 0 0 1000 1000;" xml:space="preserve">
<polygon points="537.6,206.7 267.3,192.3 38.7,97.5 72.6,-57.6 301.2,37.2 571.5,51.3 "/>
<rect x="-390.9" y="91.5" transform="matrix(0.7071 -0.7071 0.7071 0.7071 -222.009 -146.2772)" width="206.7" height="206.7"/>
<polygon points="-571.5,-341.1 -571.5,37.2 -287.1,37.2 -287.1,-56.7 -193.5,-56.7 -193.5,-341.1 "/>
<polygon points="21.3,-46.8 21.3,-49.2 21.3,-49.2 21.6,-190.5 -175.5,-231.3 -175.8,-49.5 -175.8,-49.5 -175.8,-47.1 -175.8,-44.4 
	-175.8,-44.4 -175.8,137.4 21,96.9 21.3,-44.1 21.3,-44.1 "/>
</svg>
