<?xml version="1.0" encoding="utf-8"?>
<!-- Generator: Adobe Illustrator 26.0.1, SVG Export Plug-In . SVG Version: 6.00 Build 0)  -->
<svg version="1.1" id="Calque_1" xmlns="http://www.w3.org/2000/svg" xmlns:xlink="http://www.w3.org/1999/xlink" x="0px" y="0px"
	 viewBox="0 0 1000 1000" style="enable-background:new 0 0 1000 1000;" xml:space="preserve">
<polygon points="179.2,68.9 89.1,64.1 12.9,32.5 24.2,-19.2 100.4,12.4 190.5,17.1 "/>
<rect x="-130.3" y="30.5" transform="matrix(0.7071 -0.7071 0.7071 0.7071 -74.0113 -48.7507)" width="68.9" height="68.9"/>
<polygon points="-190.5,-113.7 -190.5,12.4 -95.7,12.4 -95.7,-18.9 -64.5,-18.9 -64.5,-113.7 "/>
<polygon points="7.1,-15.6 7.1,-16.4 7.1,-16.4 7.2,-63.5 -58.5,-77.1 -58.6,-16.5 -58.6,-16.5 -58.6,-15.7 -58.6,-14.8 
	-58.6,-14.8 -58.6,45.8 7,32.3 7.1,-14.7 7.1,-14.7 "/>
</svg>
