<?xml version="1.0" encoding="utf-8"?>
<!-- Generator: Adobe Illustrator 26.0.1, SVG Export Plug-In . SVG Version: 6.00 Build 0)  -->
<svg version="1.1" id="Calque_1" xmlns="http://www.w3.org/2000/svg" xmlns:xlink="http://www.w3.org/1999/xlink" x="0px" y="0px"
	 viewBox="0 0 1000 1000" style="enable-background:new 0 0 1000 1000;" xml:space="preserve">
<polygon points="179.1,70.2 89,65.1 13,33.4 23.1,-11.7 189.2,25 "/>
<rect x="-129" y="30.5" transform="matrix(0.7071 -0.7071 0.7071 0.7071 -73.6371 -47.8248)" width="68.9" height="68.9"/>
<polygon points="-189.2,-113.7 -189.2,12.4 -94.4,12.4 -94.4,-18.9 -63.1,-18.9 -63.1,-113.7 "/>
<polygon points="8.4,-15.6 8.4,-16.4 8.4,-16.4 8.5,-63.5 -57.1,-77.1 -57.3,-16.5 -57.3,-16.5 -57.3,-15.7 -57.3,-14.8 
	-57.3,-14.8 -57.3,45.8 8.3,32.3 8.4,-14.7 8.4,-14.7 "/>
</svg>
