<?xml version="1.0" encoding="utf-8"?>
<!-- Generator: Adobe Illustrator 26.0.1, SVG Export Plug-In . SVG Version: 6.00 Build 0)  -->
<svg version="1.1" id="Calque_1" xmlns="http://www.w3.org/2000/svg" xmlns:xlink="http://www.w3.org/1999/xlink" x="0px" y="0px"
	 viewBox="0 0 1000 1000" style="enable-background:new 0 0 1000 1000;" xml:space="preserve">
<polygon points="537.3,210.6 267,195.3 39,100.2 69.3,-35.1 567.6,75 "/>
<rect x="-387" y="91.5" transform="matrix(0.7071 -0.7071 0.7071 0.7071 -220.8659 -143.5334)" width="206.7" height="206.7"/>
<polygon points="-567.6,-341.1 -567.6,37.2 -283.2,37.2 -283.2,-56.7 -189.3,-56.7 -189.3,-341.1 "/>
<polygon points="25.2,-46.8 25.2,-49.2 25.2,-49.2 25.5,-190.5 -171.3,-231.3 -171.9,-49.5 -171.9,-49.5 -171.9,-47.1 -171.9,-44.4 
	-171.9,-44.4 -171.9,137.4 24.9,96.9 25.2,-44.1 25.2,-44.1 "/>
</svg>
