<?xml version="1.0" encoding="utf-8"?>
<!-- Generator: Adobe Illustrator 26.0.1, SVG Export Plug-In . SVG Version: 6.00 Build 0)  -->
<svg version="1.1" id="Calque_1" xmlns="http://www.w3.org/2000/svg" xmlns:xlink="http://www.w3.org/1999/xlink" x="0px" y="0px"
	 viewBox="0 0 1000 1000" style="enable-background:new 0 0 1000 1000;" xml:space="preserve">
<style type="text/css">
	.st0{fill:none;stroke:#0000FF;stroke-width:3;stroke-linejoin:round;stroke-miterlimit:10;}
</style>
<polygon class="st0" points="-63.5,-184.5 -40.1,-176.6 109.8,-126.5 132,-119.1 123.4,-92.5 87.1,19.4 78.8,44.5 64.9,51.1 
	47.3,59.6 32.7,66.6 45.5,76.2 102.1,118.4 117.2,129.9 122,111.5 170,-69.3 176.3,-92.6 200.3,-85.2 227,-77.2 252.7,-69.3 
	243.4,-42.2 182.3,135.6 176.3,153.3 159.9,146.9 138.2,138.2 117.2,129.9 102.1,118.4 45.5,76.2 32.7,66.6 42.7,78.7 93.8,140.5 
	109.5,159.4 88.9,172.7 18.8,218 8.2,224.8 5,211.8 -18.6,113.4 -23.5,93.4 -3.8,83.9 64.9,51.1 78.8,44.5 56.8,48.3 -44.5,66.7 
	-67.5,70.9 -86.2,86.2 -130.1,122.1 -152.3,140.3 -171.5,123.3 -215.9,83.5 -237.1,64.8 -210.5,44 -163.4,7.1 -140.6,-10.8 
	-121.6,10.4 -84.5,52.1 -67.5,70.9 -44.5,66.7 56.8,48.3 78.8,44.5 59,38 -94.4,-10.6 -116.5,-17.7 -108.3,-43.1 -69.1,-166.7 "/>
</svg>
