<?xml version="1.0" encoding="utf-8"?>
<!-- Generator: Adobe Illustrator 26.0.1, SVG Export Plug-In . SVG Version: 6.00 Build 0)  -->
<svg version="1.1" id="Calque_1" xmlns="http://www.w3.org/2000/svg" xmlns:xlink="http://www.w3.org/1999/xlink" x="0px" y="0px"
	 viewBox="0 0 1000 1000" style="enable-background:new 0 0 1000 1000;" xml:space="preserve">
<style type="text/css">
	.st0{fill:none;stroke:#0000FF;stroke-width:3;stroke-linejoin:round;stroke-miterlimit:10;}
</style>
<polygon class="st0" points="-235.1,41.5 -186.3,92.1 -133.3,38.8 -181.8,-9.3 "/>
<polygon class="st0" points="-145.8,-92 -172,-21.9 -103.1,1.3 -126.6,-92 "/>
<polygon class="st0" points="-78.1,-84.6 -93.4,15.3 -48,6.8 -47.7,-67.2 "/>
<polygon class="st0" points="-18.7,-26.4 -31.2,16.2 64.8,65.9 147.3,58.9 149.7,20.5 107.1,21.6 "/>
<polygon class="st0" points="171.8,24 161.8,51.4 273.3,68.8 292,32.2 274.3,22.2 261.4,34.7 "/>
<polygon class="st0" points="-151,-92.1 -292,-92.1 -291.6,9.9 -189.4,9.7 -189.3,-41.8 -169.9,-42.2 "/>
</svg>
