<?xml version="1.0" encoding="utf-8"?>
<!-- Generator: Adobe Illustrator 28.3.0, SVG Export Plug-In . SVG Version: 6.00 Build 0)  -->
<svg version="1.1" id="Calque_1" xmlns="http://www.w3.org/2000/svg" xmlns:xlink="http://www.w3.org/1999/xlink" x="0px" y="0px"
	 viewBox="0 0 1000 1000" style="enable-background:new 0 0 1000 1000;" xml:space="preserve">
<path d="M-32.6764-65.8188c3.1037,1.7019,6.0212,3.2331,8.6983,4.6168c3.0597,1.5827,6.3367,4.1059,5.8685,5.5933
	C-3.8455-78.5405-7.231-85.1011-16.154-89.9195c-8.101-4.3764-9.9529-5.4006-11.8824-6.4842
	c-1.2415-0.701-2.4469-1.8831-2.1392-2.6255C-42.2179-79.9358-41.8609-70.8625-32.6764-65.8188z"/>
<path d="M141.9055,5.0334c11.9164-7.1976,31.8938-14.7422,39.6749,9.0172c8.4093-17.3485,7.4838-46.2507-18.5928-46.2507
	c-14.6744,0-30.531,9.8126-30.531,36.5983c0,25.0669,26.9384,30.0057,31.4461,31.2801c-4.0889,0.4698-8.348,0.7338-12.7637,0.9322
	c-18.6798,0.8406-28.1281,11.9879-31.9713,21.3927c2.1416-2.8607,21.7651-6.9553,45.2319-6.9553
	c21.4938,0,35.6003-18.208,35.6003-33.7117C187.0036,22.5053,159.1068,30.4484,141.9055,5.0334z"/>
<path d="M103.5711,20.8427c0,52.1716-16.2315,75.701-46.702,75.701c-28.1004,0-40.0482-26.1837-42.7032-31.8341
	C62.8932,74.9359,86.491,55.3327,93.7651,46.798c1.0605-16.4457-7.427-56.3676-32.3167-56.3676
	c-7.6777,0-17.0072,8.429-20.3524,15.8961c8.6335,14.161,37.6546,14.6455,49.0567,14.6455
	c1.0857,14.697-4.8597,26.5682-22.5453,26.5682S35.7816,34.509,35.7816,9.6744c0-30.1193,13.948-47.2777,32.3323-47.2777
	C90.0214-37.6033,103.5711-17.0763,103.5711,20.8427z"/>
<path d="M-105.6172-25.7548c-4.7956,9.9541-24.8271,16.4342-24.8271,29.7724s27.9237,39.8187,27.9237,49.1547
	c-13.6773,8.0269-32.37,12.1695-47.1593,12.1695c-36.2561,0-44.5835-25.1568-34.266-52.4596
	C-200,30.9609-199.9832,46.3453-199.9832,55.8203c0,14.8558,7.1876,43.209,48.7313,43.209s56.4449-27.6637,55.7203-51.6134
	c7.2184,6.7336,39.6219,5.2787,53.909,5.2787c39.9785,0,58.4435-28.9722,58.4435-55.6839c0-40.9964-22.949-43.8683-35.5682-43.8683
	c-21.5872,0-51.3096,27.7259-68.3898,65.6972C-62.1779-14.9039-43.153-16.344-31.0292-16.344C0-16.344,4.3932,8.3492,3.7126,15.9077
	c-6.3444,2.0738-14.9012,4.0359-30.9269,4.0359c-8.003,0-68.413,0-68.413,0C-95.6273,3.7367-102.5338-12.4057-105.6172-25.7548z"/>
</svg>
