<?xml version="1.0" encoding="utf-8"?>
<!-- Generator: Adobe Illustrator 26.0.2, SVG Export Plug-In . SVG Version: 6.00 Build 0)  -->
<svg version="1.1" id="Calque_1" xmlns="http://www.w3.org/2000/svg" xmlns:xlink="http://www.w3.org/1999/xlink" x="0px" y="0px"
	 width="1000px" height="1000px" viewBox="0 0 1000 1000" style="enable-background:new 0 0 1000 1000;" xml:space="preserve">
<style type="text/css">
	.st0{fill:none;stroke:#000000;}
</style>
<path class="st0" d="M128.6-86.6c7.7,6.7,14.6,14,20.6,21.9c6,8,11.1,16.4,15.2,25.5c4.1,9,7.3,18.4,9.4,28.2
	c2.1,9.8,3.2,19.7,3.2,29.8c0,11.3-1.3,22.2-3.9,32.8c-2.6,10.6-6.3,20.7-11.3,30.2c-4.9,9.6-10.9,18.5-18,26.8
	c-7,8.3-15.1,15.8-24.1,22.6L18.9,207.1c-3.8,2.8-8.1,4.9-12.9,6.4c-4.8,1.5-9.6,2.3-14.2,2.3c-4.8,0-9.6-0.8-14.4-2.3
	c-4.8-1.6-9.1-3.8-13-6.7l-100.1-75.1c-9-6.8-17.1-14.3-24.3-22.6c-7.2-8.3-13.3-17.3-18.2-26.8c-4.9-9.6-8.7-19.7-11.4-30.3
	c-2.6-10.6-3.9-21.7-3.9-33c0-14.7,2.2-29,6.6-42.8c4.4-13.8,11-26.6,19.7-38.4c-8.4-9.6-14.9-20.3-19.4-32.2
	c-4.6-11.9-6.9-24.3-6.9-37.1v-23.2h115.9c12.7,0,24.8,2.2,36.5,6.6c11.7,4.4,22.3,10.7,31.8,19c7.7-8.2,16.7-14.5,26.8-18.9
	c10.2-4.5,20.9-6.7,32.2-6.7h92.7v23.2c0,8.1-1.2,15.9-3.5,23.6C136.5-100.4,133.1-93.2,128.6-86.6z"/>
<path class="st0" d="M-77.7-131.7h-92.7c0,11.2,2.1,21.7,6.4,31.6c4.2,9.9,10,18.5,17.3,25.8c7.3,7.3,15.9,13.1,25.8,17.3
	c9.9,4.2,20.4,6.4,31.6,6.4H3.4c0-11.2-2.1-21.7-6.4-31.5c-4.2-9.8-10-18.4-17.4-25.8c-7.4-7.4-16-13.2-25.8-17.4
	C-56-129.6-66.5-131.7-77.7-131.7z"/>
<path class="st0" d="M153.9,18.9c0-10.6-1.4-20.9-4.1-30.8c-2.7-9.9-6.6-19.1-11.7-27.7c-5.1-8.6-11.1-16.4-18.1-23.5
	c-7-7-14.9-13.1-23.5-18.1c-8.6-5-17.8-8.9-27.6-11.7C59.1-95.7,48.8-97,38-97c-11.3,0-22.2,1.6-32.9,4.8c3.9,7.6,6.6,15.9,8.2,24.7
	c7.6,6.2,14.4,13.1,20.4,20.7s11,15.7,15.1,24.3C52.9-14,56-5,58.1,4.4c2.1,9.4,3.1,19,3.1,28.9c0,3.3-0.2,7.3-0.6,11.9
	c-0.4,4.6-1.1,9.3-2,14.1c-0.9,4.8-2,9.4-3.2,13.8c-1.2,4.4-2.7,8.1-4.3,11c-1.2,2.2-2.6,3.8-4.4,5.1c-1.7,1.2-3.9,1.9-6.4,1.9
	c-3.1,0-5.8-1.1-8.1-3.4c-2.3-2.3-3.4-5-3.4-8.2c0-1.3,0.3-2.7,0.8-4.4c2.7-6.9,4.8-13.7,6.2-20.5S38,40.8,38,33.4
	C38,19.9,35.6,7,30.9-5.5C26.1-18,19.1-29.1,10-39h-99.3c-9.7,0-19.1-1.5-28.2-4.4c-9.1-2.9-17.6-7.1-25.5-12.7
	c-8.9,10.5-15.7,22.2-20.4,35c-4.7,12.8-7,26.1-7,39.8c0,19.2,4.2,36.9,12.7,52.9c8.4,16.1,20.3,29.8,35.5,41.2l91.7,69
	c1.5,1.2,3.1,2.5,4.8,3.9c1.7,1.4,3.4,2.5,5.2,3.4c2.1,1.2,4.1,2.1,5.8,2.7c1.7,0.6,3.9,0.9,6.4,0.9c2.5,0,4.5-0.3,6.1-0.9
	c1.6-0.6,3.5-1.4,5.6-2.5c1.8-0.9,3.7-2.1,5.5-3.6c1.8-1.6,3.5-2.9,5.2-4.1l91.9-68.8c7.5-5.6,14.2-11.8,20.1-18.8
	c5.9-6.9,10.9-14.4,15.1-22.3c4.1-8,7.3-16.4,9.4-25.2C152.9,37.5,153.9,28.3,153.9,18.9z"/>
<path class="st0" d="M49.6-131.7c-5.2,0-10.2,0.7-15.2,2c-4.9,1.3-9.6,3.3-13.9,5.8c-4.4,2.5-8.3,5.6-11.9,9.2
	c-3.6,3.6-6.7,7.7-9.3,12.2c6.3-2,12.7-3.5,19.2-4.5c6.4-1,13-1.5,19.7-1.5c11.4,0,22.5,1.5,33.4,4.4c10.9,2.9,21.2,7.3,30.9,13.1
	c5.4-5.5,9.5-11.7,12.4-18.7c2.9-7,4.4-14.3,4.4-21.9H49.6z"/>
</svg>
