<?xml version="1.0" encoding="utf-8"?>
<!-- Generator: Adobe Illustrator 26.0.2, SVG Export Plug-In . SVG Version: 6.00 Build 0)  -->
<svg version="1.1" id="Calque_1" xmlns="http://www.w3.org/2000/svg" xmlns:xlink="http://www.w3.org/1999/xlink" x="0px" y="0px"
	 width="1000px" height="1000px" viewBox="0 0 1000 1000" style="enable-background:new 0 0 1000 1000;" xml:space="preserve">
<style type="text/css">
	.st0{fill:none;stroke:#000000;stroke-miterlimit:10;}
</style>
<path class="st0" d="M0-203c-18.7,0-36.7,2.4-54,7.3c-17.3,4.8-33.5,11.7-48.5,20.5c-15.1,8.8-28.8,19.4-41.1,31.7
	s-22.9,26-31.7,41.1s-15.6,31.2-20.5,48.5c-4.8,17.3-7.3,35.3-7.3,54s2.4,36.7,7.3,54c4.8,17.3,11.7,33.5,20.5,48.5
	c8.8,15.1,19.4,28.8,31.7,41.1s26,22.9,41.1,31.7S-71.3,191-54,195.9c17.3,4.8,35.3,7.3,54,7.3s36.7-2.4,54-7.3
	c17.3-4.8,33.5-11.7,48.5-20.5c15.1-8.8,28.8-19.4,41.1-31.7s22.9-26,31.7-41.1s15.6-31.2,20.5-48.5c4.8-17.3,7.3-35.3,7.3-54
	s-2.4-36.7-7.3-54c-4.8-17.3-11.7-33.5-20.5-48.5c-8.8-15.1-19.4-28.8-31.7-41.1s-26-22.9-41.1-31.7S71.3-190.8,54-195.7
	C36.7-200.6,18.7-203,0-203z"/>
<path class="st0" d="M0,87c11.4,0,22.6-1.4,33.6-4.3S55,75.5,64.8,69.9c1.6-0.9,3.4-2.1,5.2-3.4c1.9-1.3,3.8-2.7,5.8-3.9
	c2-1.3,3.9-2.4,5.9-3.2c2-0.9,3.8-1.3,5.5-1.3c3.9,0,7.3,1.4,10.1,4.3c2.8,2.9,4.2,6.3,4.2,10.2c0,4.6-1.9,8.5-5.9,11.7
	C89.6,89.4,82.7,94,75,98s-15.8,7.3-24.3,10s-17.1,4.7-25.7,6.1c-8.7,1.3-17,2-24.9,2s-16.2-0.7-24.9-2s-17.3-3.4-25.7-6.1
	c-8.5-2.7-16.6-6-24.3-10s-14.6-8.6-20.7-13.8c-3.9-3.2-5.9-7.1-5.9-11.7c0-3.9,1.4-7.3,4.3-10.1c2.9-2.8,6.3-4.2,10.2-4.2
	c1.8,0,3.6,0.4,5.5,1.3c2,0.9,3.9,1.9,6,3.1c2,1.2,3.9,2.5,5.8,3.8c1.8,1.3,3.5,2.5,5.1,3.4C-44.5,81.2-23,87,0,87z"/>
<path class="st0" d="M79.7-87c3.1,0,6,0.6,8.6,1.7s4.9,2.7,6.9,4.6s3.5,4.2,4.6,6.9c1.1,2.6,1.7,5.5,1.7,8.6v28.9
	c0,3-0.6,5.8-1.7,8.5s-2.7,5-4.6,7c-1.9,1.9-4.2,3.5-6.9,4.6c-2.6,1.1-5.5,1.7-8.6,1.7c-3,0-5.8-0.6-8.5-1.7s-5-2.7-6.9-4.7
	s-3.4-4.3-4.5-7c-1.1-2.6-1.7-5.4-1.7-8.4v-28.9c0-3,0.6-5.8,1.7-8.4c1.1-2.6,2.7-4.9,4.5-7c1.9-2,4.2-3.6,6.9-4.7S76.7-87,79.7-87z
	"/>
<path class="st0" d="M-79.7-14.5c-3,0-5.8-0.6-8.5-1.7s-5-2.7-7-4.6c-1.9-2-3.5-4.3-4.6-7s-1.7-5.5-1.7-8.5v-28.9
	c0-3.1,0.6-6,1.7-8.6s2.7-4.9,4.6-6.9c2-2,4.3-3.5,7-4.6s5.5-1.7,8.5-1.7s5.8,0.6,8.4,1.7s4.9,2.7,7,4.7s3.6,4.3,4.7,7
	c1.1,2.6,1.7,5.4,1.7,8.4v28.9c0,3-0.6,5.8-1.7,8.4c-1.1,2.6-2.7,4.9-4.7,7c-2,2-4.3,3.6-7,4.7C-74-15.1-76.7-14.5-79.7-14.5z"/>
</svg>
